<?xml version="1.0" encoding="UTF-8"?>
<svg id="Layer_2" data-name="Layer 2" xmlns="http://www.w3.org/2000/svg" viewBox="0 0 43.22 29.91">
  <defs>
    <style>
      .cls-1 {
        fill: #0fbc56;
        stroke-width: 0px;
      }
    </style>
  </defs>
  <g id="Layer_1-2" data-name="Layer 1">
    <g>
      <path class="cls-1" d="M20.78.93L0,1v6.4l12.3.06c1.78-3.18,4.75-5.51,8.48-6.53Z"/>
      <path class="cls-1" d="M10.78,11.58l-10.78.03v6.4l10.79.06c-.21-1.04-.33-2.12-.33-3.25s.11-2.2.32-3.23Z"/>
      <path class="cls-1" d="M12.31,22.19l-12.31.04v6.4l12.85.07h7.93c-3.72-1.02-6.69-3.33-8.47-6.5Z"/>
      <path class="cls-1" d="M30.26,7.53V.36c-1.55,0-3.02.2-4.39.58-3.73,1.02-6.71,3.34-8.48,6.53-.7,1.25-1.21,2.63-1.52,4.12-.21,1.03-.32,2.11-.32,3.23s.11,2.22.33,3.25c.31,1.49.82,2.87,1.52,4.12,1.78,3.17,4.75,5.49,8.47,6.5,1.37.37,2.84.58,4.39.58v-7.17c-2.91,0-5.25-1.57-6.35-4.02-.43-.97-.68-2.06-.68-3.27s.24-2.3.67-3.26c1.1-2.45,3.45-4.02,6.35-4.03Z"/>
      <path class="cls-1" d="M43.22,0v29.91s-3.86-5.25-3.89-5.25c-.02,0-3.87,5.25-3.89,5.25V0h7.78Z"/>
    </g>
  </g>
</svg>