<?xml version="1.0" encoding="UTF-8"?>
<svg id="Layer_2" data-name="Layer 2" xmlns="http://www.w3.org/2000/svg" viewBox="0 0 465.95 143.38">
  <defs>
    <style>
      .cls-1 {
        fill: #d2ffe4;
      }

      .cls-1, .cls-2 {
        stroke-width: 0px;
      }

      .cls-2 {
        fill: #0fbc56;
      }
    </style>
  </defs>
  <g id="Layer_1-2" data-name="Layer 1">
    <g>
      <path class="cls-2" d="M86.44,13.38L0,13.65v26.61l51.15.27c7.4-13.25,19.76-22.91,35.29-27.15Z"/>
      <path class="cls-2" d="M44.84,57.65l-44.84.14v26.61l44.86.23c-.89-4.31-1.36-8.83-1.36-13.54s.47-9.16,1.34-13.45Z"/>
      <path class="cls-2" d="M51.2,101.78l-51.2.16v26.61l53.44.28h33.01c-15.49-4.23-27.83-13.86-35.24-27.05Z"/>
      <path class="cls-2" d="M125.87,40.79V10.98c-6.46,0-12.57.85-18.27,2.4-15.53,4.24-27.89,13.9-35.29,27.15-2.9,5.19-5.04,10.94-6.3,17.12-.88,4.29-1.34,8.78-1.34,13.45s.48,9.23,1.36,13.54c1.27,6.19,3.42,11.94,6.34,17.14,7.41,13.2,19.75,22.82,35.24,27.05,5.69,1.56,11.81,2.39,18.26,2.4v-29.82c-12.09-.03-21.85-6.53-26.42-16.72-1.8-4.01-2.82-8.58-2.82-13.58s1.01-9.55,2.8-13.56c4.56-10.21,14.33-16.72,26.43-16.75Z"/>
      <path class="cls-2" d="M179.77,9.49v124.39c-.12,0-16.05-21.84-16.17-21.84-.08,0-16.09,21.84-16.17,21.84V9.49h32.35Z"/>
    </g>
    <g>
      <g>
        <path class="cls-1" d="M281.6,16.61c0-9.48,7.39-16.61,17.07-16.61s16.02,6.67,16.02,15.89c0,1.18-.13,2.35-.46,3.99l-22.76.07c1.05,3.53,3.79,5.56,7.85,5.56,3.14,0,5.69-1.05,7.59-3.27l5.49,5.49c-3.14,3.66-7.65,5.49-13.01,5.49-10.33,0-17.79-6.93-17.79-16.61ZM291.47,13.08l13.86-.07c-.79-3.53-3.01-5.36-6.61-5.36s-6.28,2.03-7.26,5.43Z"/>
        <path class="cls-1" d="M319.52.72h10.01v2.42c2.03-2.03,4.71-3.07,8.17-3.07,3.01,0,5.36.92,7.06,2.81l-5.95,7.52c-.92-.92-2.16-1.5-3.86-1.5-3.33,0-5.43,2.03-5.43,6.15v17.46h-10.01V.72Z"/>
        <path class="cls-1" d="M347.18.72h10.01v2.42c2.03-2.03,4.71-3.07,8.17-3.07,3.01,0,5.36.92,7.06,2.81l-5.95,7.52c-.92-.92-2.16-1.5-3.86-1.5-3.33,0-5.43,2.03-5.43,6.15v17.46h-10.01V.72Z"/>
        <path class="cls-1" d="M372.1,16.55c0-9.42,7.46-16.55,17.4-16.55s17.4,7.13,17.4,16.55-7.46,16.68-17.4,16.68-17.4-7.26-17.4-16.68ZM396.69,16.55c0-4.45-2.94-7.46-7.19-7.46s-7.19,3.07-7.19,7.52,2.94,7.52,7.19,7.52,7.19-3.07,7.19-7.59Z"/>
        <path class="cls-1" d="M411.85.72h10.01v2.42c2.03-2.03,4.71-3.07,8.17-3.07,3.01,0,5.36.92,7.06,2.81l-5.95,7.52c-.92-.92-2.16-1.5-3.86-1.5-3.33,0-5.43,2.03-5.43,6.15v17.46h-10.01V.72Z"/>
      </g>
      <g>
        <path class="cls-1" d="M279.6,71.08c0-9.48,7.59-16.61,17.59-16.61,4.91,0,9.16,1.77,12.36,5.1l-6.41,6.41c-1.44-1.63-3.4-2.42-5.95-2.42-4.25,0-7.39,3.01-7.39,7.46s3.14,7.59,7.39,7.59c2.68,0,4.64-.92,6.15-2.62l6.34,6.41c-3.33,3.47-7.52,5.3-12.62,5.3-9.88,0-17.46-7.13-17.46-16.61Z"/>
        <path class="cls-1" d="M311.24,71.02c0-9.42,7.46-16.55,17.4-16.55s17.4,7.13,17.4,16.55-7.46,16.68-17.4,16.68-17.4-7.26-17.4-16.68ZM335.84,71.02c0-4.45-2.94-7.46-7.19-7.46s-7.19,3.07-7.19,7.52,2.94,7.52,7.19,7.52,7.19-3.07,7.19-7.59Z"/>
        <path class="cls-1" d="M349.04,71.08c0-9.48,6.47-16.55,15.5-16.55,3.2,0,6.15.98,8.31,2.68v-17.72h10.01v47.48h-9.81v-2.29c-2.22,1.83-5.23,2.94-8.5,2.94-9.03,0-15.5-7.06-15.5-16.55ZM373.44,71.08c0-4.45-2.88-7.52-7.06-7.52s-7.19,3.14-7.19,7.52,3.01,7.52,7.13,7.52,7.13-3.07,7.13-7.52Z"/>
        <path class="cls-1" d="M387.82,71.08c0-9.48,7.39-16.61,17.07-16.61s16.02,6.67,16.02,15.89c0,1.18-.13,2.35-.46,3.99l-22.76.07c1.05,3.53,3.79,5.56,7.85,5.56,3.14,0,5.69-1.05,7.59-3.27l5.49,5.49c-3.14,3.66-7.65,5.49-13.01,5.49-10.33,0-17.79-6.93-17.79-16.61ZM397.69,67.55l13.86-.07c-.79-3.53-3.01-5.36-6.61-5.36s-6.28,2.03-7.26,5.43Z"/>
        <path class="cls-1" d="M422.8,81.87l5.69-5.75c2.09,2.29,5.04,3.6,8.44,3.6,2.35,0,3.66-.72,3.66-1.96,0-4.64-15.5-1.57-15.5-13.28,0-6.08,4.97-10.2,12.75-10.2,5.36,0,10.2,1.9,13.08,5.56l-5.69,5.75c-1.96-2.35-4.58-3.2-7-3.2-2.29,0-3.4.72-3.4,1.9,0,4.05,15.43,1.44,15.43,13.34,0,6.28-5.04,10.14-12.95,10.14-5.69,0-11.25-2.29-14.52-5.89Z"/>
      </g>
      <path class="cls-1" d="M282.94,101c0-3.07,2.29-5.49,5.43-5.49s5.36,2.42,5.36,5.49-2.22,5.49-5.36,5.49-5.43-2.42-5.43-5.49ZM283.33,110.87h10.01v31.78h-10.01v-31.78Z"/>
      <path class="cls-1" d="M305.4,110.87h10.01v2.55c2.22-2.03,5.36-3.2,8.89-3.2,7,0,12.1,5.56,12.1,12.1v20.34h-10.01v-18.12c0-3.34-2.29-5.56-5.43-5.56s-5.56,2.22-5.56,5.56v18.12h-10.01v-31.78Z"/>
      <path class="cls-1" d="M347.84,126.77c0-9.48,6.47-16.55,15.5-16.55,3.2,0,6.15.98,8.31,2.68v-17.72h10.01v47.48h-9.81v-2.29c-2.22,1.83-5.23,2.94-8.5,2.94-9.03,0-15.5-7.06-15.5-16.55ZM372.23,126.77c0-4.45-2.88-7.52-7.06-7.52s-7.19,3.14-7.19,7.52,3.01,7.52,7.13,7.52,7.13-3.07,7.13-7.52Z"/>
      <path class="cls-1" d="M392.62,126.77c0-9.48,7.39-16.61,17.07-16.61s16.02,6.67,16.02,15.89c0,1.18-.13,2.35-.46,3.99l-22.76.07c1.05,3.53,3.79,5.56,7.85,5.56,3.14,0,5.69-1.05,7.59-3.27l5.49,5.49c-3.14,3.66-7.65,5.49-13.01,5.49-10.33,0-17.79-6.93-17.79-16.61ZM402.49,123.23l13.86-.07c-.79-3.53-3.01-5.36-6.61-5.36s-6.28,2.03-7.26,5.43Z"/>
      <path class="cls-1" d="M442.87,126.44l-10.79-15.57h11.71l5.3,8.63,5.36-8.63h10.86l-10.59,15.37,11.25,16.42h-11.58l-5.89-9.48-6.08,9.48h-10.92l11.38-16.22Z"/>
    </g>
    <rect class="cls-1" x="231.54" y="4.97" width="2" height="133.44"/>
  </g>
</svg>